<?xml version="1.0" standalone="no"?>
<!DOCTYPE svg PUBLIC "-//W3C//DTD SVG 20010904//EN"
 "http://www.w3.org/TR/2001/REC-SVG-20010904/DTD/svg10.dtd">
<svg version="1.0" xmlns="http://www.w3.org/2000/svg"
 width="249.000000pt" height="202.000000pt" viewBox="0 0 249.000000 202.000000"
 preserveAspectRatio="xMidYMid meet">

<g transform="translate(0.000000,202.000000) scale(0.100000,-0.100000)"
fill="#000000" stroke="none">
<path d="M1615 2008 c-131 -25 -287 -146 -348 -270 -48 -98 -66 -229 -45 -329
4 -16 -40 -14 -172 7 -286 47 -545 182 -766 398 l-114 111 -21 -50 c-35 -80
-40 -105 -40 -200 0 -153 58 -288 166 -383 43 -37 45 -42 24 -42 -30 0 -112
22 -162 43 -36 16 -37 16 -37 -7 0 -54 24 -145 55 -206 61 -121 168 -215 297
-259 l53 -18 -48 -8 c-26 -4 -76 -5 -112 -3 -36 2 -65 3 -65 2 0 -15 42 -93
76 -141 75 -106 240 -202 347 -203 20 0 37 -4 37 -10 0 -30 -203 -133 -345
-175 -73 -22 -117 -28 -239 -32 l-148 -6 78 -43 c136 -75 326 -140 481 -163
91 -14 323 -14 433 0 404 50 767 280 993 629 147 228 219 444 239 720 11 148
12 155 37 175 90 69 250 249 205 231 -55 -23 -154 -54 -189 -60 -22 -4 -49
-10 -60 -13 -11 -3 12 24 51 60 50 46 82 87 108 137 21 39 36 73 34 75 -1 2
-38 -14 -81 -34 -42 -21 -113 -48 -157 -61 l-79 -23 -47 42 c-113 99 -277 140
-439 109z"/>
</g>
</svg>
